<?xml version="1.0" encoding="utf-8"?>
<!-- Generator: Adobe Illustrator 19.0.0, SVG Export Plug-In . SVG Version: 6.00 Build 0)  -->
<svg version="1.1" id="Layer_1" xmlns="http://www.w3.org/2000/svg" xmlns:xlink="http://www.w3.org/1999/xlink" x="0px" y="0px"
	 viewBox="0 0 230 60" style="enable-background:new 0 0 230 60;" xml:space="preserve">
<style type="text/css">
	.st0{fill-rule:evenodd;clip-rule:evenodd;fill:#0E92BE;}
	.st1{fill-rule:evenodd;clip-rule:evenodd;fill:#2AAAE0;}
</style>
<g id="XMLID_3_">
	<g id="XMLID_2_">
		<path id="XMLID_312_" class="st0" d="M138.5,17.9c0,8,0,16,0,24c-2.3,0.1-3.9,0.2-3.7-2.2c-1.4,1-2.8,2.4-5.4,2.4
			c-8.7,0-8.3-18,1.8-17.1c1.5,0.1,2.2,0.8,3.4,1.5c0.1-2.9-0.1-6,0.1-8.7C135.9,17.9,137.2,17.9,138.5,17.9z M128.1,29.8
			c-1.4,2.5-1,7.6,1,8.8c1.8,1,5.1-0.3,5.5-1.8c0.3-1.1,0-2.4,0-3.5c0-1.2,0-2.4,0-3.6C133,27.3,129.4,27.6,128.1,29.8z"/>
		<path id="XMLID_315_" class="st0" d="M170.5,17.9c0,8,0,16,0,24c-2.3,0.1-3.9,0.2-3.7-2.2c-1.4,1-2.8,2.5-5.5,2.4
			c-6.9-0.1-7.9-11.6-3.3-15.5c2-1.7,6.5-2.2,8.5,0c0.1-2.9-0.1-6,0.1-8.7C168,17.9,169.2,17.9,170.5,17.9z M161,28.7
			c-2.4,1.9-2.2,8.5,0.1,9.8c1.8,1,5.1-0.3,5.5-1.8c0.3-1.1,0-2.4,0-3.5c0-1.2,0-2.4,0-3.6C165.4,27.8,162.6,27.5,161,28.7z"/>
		<path id="XMLID_318_" class="st0" d="M119.1,18c1.8-0.3,3.4,0.9,3,3.1c-0.5,2.3-4.2,2.5-4.9,0.2C116.7,19.6,117.5,18.3,119.1,18z"
			/>
		<path id="XMLID_319_" class="st0" d="M99.3,21.4c-0.9,0.6-1,2.3-2.2,2.4c-0.8,0.1-1.6-0.9-2.3-1.2c-1.1-0.5-2.7-0.8-4.3-0.6
			c-8.9,0.8-8.8,16.2,0.3,16.5c1.6,0.1,3-0.3,3.9-0.8c0.6-0.3,1.3-1.3,2.1-1.3c1.2,0,1.3,1.5,2.3,2.1c-2.4,3.6-8.9,4.5-13.1,2.7
			c-4.1-1.7-6.6-5.8-6.6-11c0-7,4.4-11.3,11.1-11.8C94.4,18.1,97.4,19.3,99.3,21.4z"/>
		<path id="XMLID_320_" class="st0" d="M154.1,41.8c-1,0-2.1,0.1-2.8-0.2c-0.3-0.5-0.4-1.1-0.6-1.7c-1.6,1.6-5.4,3-8,1.7
			c-1.8-0.8-3.1-4.1-1.5-6.3c1.6-2.2,5.5-2.8,9.2-3c0.6-3.6-1.9-5-4.7-3.9c-1,0.4-1.8,1.2-2.7,1.1c-1.1-0.1-1.1-1.3-1.7-1.9
			c1.9-2.5,8.1-3.8,11-1.3C155.5,29.2,153.7,36,154.1,41.8z M144.3,36.6c-0.3,0.6-0.2,1.3,0,1.8c0.9,2,5.5,0.6,6-0.9
			c0.3-0.9-0.2-1.7,0-2.7C147.8,35.1,145.1,34.9,144.3,36.6z"/>
		<path id="XMLID_323_" class="st0" d="M179.9,25.1c3.8-0.2,6.3,1.6,7.4,3.5c0.6,1.1,1.1,3,1.1,3.7c0.5,5.8-2.8,9.7-8,9.7
			c-2.2,0-4.6-0.7-6-2.2c-3-3-3-9.7-0.1-12.6C175.5,26.1,177.3,25.2,179.9,25.1z M178.1,28.6c-2,1.2-2.6,6.1-1.2,8.7
			c0.8,1.4,3.3,2.5,5.4,1.4c1.5-0.8,2.1-3,2.1-5.1c0-3.4-1.4-5.8-4.8-5.3C178.7,28.3,178.5,28.3,178.1,28.6z"/>
		<path id="XMLID_326_" class="st0" d="M200.6,27c-0.6,0.6-0.5,1.7-1.4,1.9c-1.1,0.2-2.1-0.9-3.3-1c-1.5-0.2-3.2,0.2-3.1,1.9
			c0.1,1.6,2.4,1.9,3.5,2.3c2,0.6,4.3,1.6,4.6,3.7c0.9,6.3-7,7.7-11.3,5.1c-0.3-0.2-1-0.6-1-0.7c0-0.3,0.5-0.9,0.7-1.2
			c1.4-2,2.9,0.5,5.2,0.5c1.2,0,3-0.7,2.7-2.3c-0.4-1.9-4.5-2-6.4-3.4c-1-0.7-1.7-1.8-1.7-3.5C189,24.5,197.1,23.7,200.6,27z"/>
		<path id="XMLID_327_" class="st0" d="M209.1,25.1c4.2-0.2,7,1.9,8,5c1.5,4.2-0.1,8.7-2.7,10.5c-3.7,2.7-9.7,1.3-11.7-1.8
			c-3.6-5.4-0.6-13.9,6.2-13.8C208.9,25.1,209,25.1,209.1,25.1z M208.6,28.2c-4.3,0.4-4.1,9.1-1,10.5c1.3,0.6,3.3,0.5,4.3-0.4
			c2.2-1.8,2.3-8.5-0.6-9.9c-0.7-0.3-1.9-0.3-2.6-0.2C208.7,28.2,208.6,28.2,208.6,28.2z"/>
		<path id="XMLID_330_" class="st0" d="M229.8,27c-0.6,0.6-0.6,1.7-1.4,1.9c-0.9,0.2-2.2-0.9-3.4-1c-1.5-0.1-3.3,0.3-3.1,2
			c0.1,1.2,1.8,1.6,3,1.9c2.6,0.8,5.4,1.8,5.1,5.4c-0.5,5.3-8.6,6.2-12.3,2.8c0.7-0.7,0.6-1.9,1.7-2.1c0.8-0.1,1.6,0.7,2.4,1
			c1.7,0.7,4.8,0.4,4.5-1.9c-0.2-1.4-1.7-1.6-3.1-2c-2.7-0.8-5.8-2.2-4.9-6.1C219.2,24.7,226.6,23.7,229.8,27z"/>
		<path id="XMLID_331_" class="st0" d="M100.4,25.3c1.3,0,2.6,0,3.9,0c0.3,3-0.3,8,0,11.1c0.4,3.4,4.7,3,6.4,0.8c0-4,0-7.9,0-11.9
			c1.3,0,2.6,0,3.9,0c0,5.5,0,11,0,16.5c-1-0.1-2.3,0.1-3.1-0.2c-0.4-0.4-0.4-1.1-0.6-1.8c-0.8,0.3-1.2,1-2,1.4
			c-2.5,1.3-6,0.8-7.5-1.2c-2.3-3.2-0.7-9.5-1.2-14.6C100.3,25.5,100.3,25.4,100.4,25.3z"/>
		<path id="XMLID_332_" class="st0" d="M117.7,25.3c1.3,0,2.6,0,3.9,0c0,5.5,0,11,0,16.5c-1.3,0-2.6,0-3.9,0c0-5.4,0-10.8,0-16.2
			C117.6,25.5,117.6,25.4,117.7,25.3z"/>
	</g>
	<g id="XMLID_1_">
		<path id="XMLID_311_" class="st1" d="M57.3,18.7c0.4,3,1.3,5.7,2.2,8.6c0.9,2.9,0.8,6.4,0.4,9.7c-0.4,3.3-0.9,6.3-2.3,8.5
			c-1,1.7-2.3,3.1-3.5,4.6c-0.3,0.4-1.2,0.8-0.8,1.5c0.7,0.2,1-0.7,1.4-1c1.1-1.3,2.3-2.6,3.3-4.2c1.4-2.1,2.1-4.5,2.5-7.5
			c0.4-3.1,0.8-6.2,0.4-9.3c-0.3-2.8-1.6-5.3-2.1-7.9c0.5-1,1.8-2.2,3.3-1.5c0.2,1.7,0.4,3.4,0.6,5c0.2,1.7,0.7,3.3,0.8,4.8
			c0.4,4.5-0.4,8.8-1.5,12.4c-1.1,3.6-2.8,6.8-5.1,8.9c-1.8,1.6-3.7,2.7-5.7,4.2c-1.9,1.4-3.9,2.9-6.2,3.7c-2.7,0.9-6,0.8-8.8,0.4
			C27.2,58.6,20.2,56,14.2,52c-3.9-2.6-7.6-5.7-9.8-9.9C4.7,42,5,42.4,5.2,42.6c1.9,1.7,3.9,3.3,6.1,4.8c2.5,1.7,5.2,3.5,8.8,3.8
			c3,0.2,5.7-0.5,7.8-2.2c1.3-1,2.2-2.3,3.2-3.4c2.1-2.1,4.7-4.1,7.9-5.1c1.7-0.5,3.4-0.8,5.1-1.4c0.7-0.3,1.7-1,2.7-0.9
			c1.3,0.2,1.8,2.5,1.2,3.9c-0.6,1.3-1.8,2.3-3.1,3.1c-1.4,0.8-3.1,1-4.5,1.6c-1.2,0.5-1.6,2.2-2.7,2.9c-0.5,0.3-1.3,0.3-1.6,1
			c0.5,0.7,1.4,0.2,1.8-0.1c0.4-0.3,1-0.7,1.4-1.1c0.5-0.6,0.8-1.5,1.4-1.9c0.8-0.4,1.8-0.5,2.6-0.8c2.4-0.9,5.6-2.8,5.9-5.7
			c0.2-1.7-0.7-2.6-1.6-3.5c0.7-2.8,1.7-5.2,2.7-7.6c-0.6-1.6-0.7-4.7-0.2-6.9c0.4-1.6,1-3.3,2.7-3.2c0.4,1.6,0.5,3.2,0.8,4.8
			c0.3,1.6,0.9,2.9,1,4.6c0.1,1.7-0.2,3.4-0.2,5.2c-0.3,7-3.1,11.9-7.1,15.4c-0.4,0.4-1.1,0.8-1.4,1.4c-0.2,0.5-0.6,1.5,0.1,2.1
			c0.7-0.2,0.4-1.2,0.6-1.7c0.3-0.7,1.1-1.2,1.6-1.7c2.6-2.6,5-5.9,6.2-10.2c0.5-1.8,0.6-3.5,0.7-5.8c0.1-1.7,0.4-3.1,0.3-4.7
			c-0.1-2.1-0.9-3.7-1.3-5.8c-0.1-0.6-0.4-1.4-0.3-2C54,19.9,55.5,17.8,57.3,18.7z"/>
		<path id="XMLID_333_" class="st0" d="M29,9.4c-0.5-0.7-1.3-0.1-1.7,0.1c-0.4,0.2-1,0.6-1.4,1c-0.6,0.6-0.8,1.6-1.6,2
			c-0.8,0.4-1.8,0.4-2.6,0.7c-2.3,0.9-5.4,2.8-5.8,5.6c-0.2,1.7,0.7,2.7,1.6,3.6c-0.7,2.8-1.7,5.3-2.7,7.6c0.6,1.7,0.6,4.7,0.2,6.9
			c-0.3,1.6-1,3.3-2.7,3.2c-0.3-1.7-0.5-3.2-0.8-4.8c-0.3-1.6-1-3-1-4.6c-0.1-1.7,0.2-3.5,0.2-5.2c0.3-7.1,3.2-11.7,7.2-15.4
			c0.4-0.3,1-0.9,1.3-1.5c0.2-0.5,0.7-1.5-0.1-2.1c-0.7,0-0.4,1.2-0.6,1.7c-0.3,0.7-1.3,1.3-1.9,2c-3.1,3.1-5.9,7.5-6.5,13.2
			c-0.1,1.2-0.1,2.4-0.2,3.7C9.7,29,9.5,31,9.9,32.7c0.5,1.8,1.3,3.4,1.4,6C10.8,40,10,42,8,41.3c-0.6-1.3-0.7-2.8-1-4.3
			c-0.3-1.4-0.9-2.7-1.3-4.1c-0.8-2.7-0.7-6.4-0.3-9.8c0.4-3.2,0.9-6.2,2.3-8.5c1-1.6,2.2-2.9,3.5-4.6c0.3-0.3,1.1-1.3,0.7-1.6
			c-0.6-0.4-2.2,2-2.5,2.4c-0.8,1-1.5,1.8-2.2,2.8c-1.4,2.2-2.1,4.6-2.5,7.5c-0.4,3.1-0.8,6.3-0.4,9.3c0.3,2.1,1.1,3.8,1.6,5.9
			c0.1,0.5,0.5,1.6,0.5,2c-0.1,1-2,2.2-3.1,1.5c-0.6-2.3-0.7-4.7-1-7.1c-0.4-2.5-0.7-4.8-0.5-7.4c0.4-4.8,1.6-9.2,3.5-12.6
			c2.1-3.6,5-5.5,8.3-7.9C16.7,2.4,19.8,0,24.9,0C29,0,33,0.9,36.7,1.8c3.6,0.9,7,2.1,9.8,3.6c6,3.1,11,7,14.2,12.6
			c0,0.1,0,0.1,0.1,0.1c-2.1-1.7-4.5-3.9-7.1-5.5c-2.4-1.6-5.2-3.4-8.7-3.7c-3.1-0.2-6,0.7-7.9,2.3c-1.4,1.1-2.4,2.6-3.6,3.8
			c-2.4,2.4-5.4,4.3-9.5,5.3c-0.8,0.2-1.9,0.3-3,0.7c-0.8,0.3-2,1-2.8,0.9c-0.7-0.1-1.4-1.3-1.4-2.2c-0.2-2.5,2.4-4.2,4.1-5.1
			c0.6-0.3,1.2-0.5,1.8-0.7c0.7-0.2,1.4-0.3,2-0.6c1.1-0.5,1.4-1.9,2.3-2.7C27.8,10.1,28.6,10.2,29,9.4z"/>
		<path id="XMLID_334_" class="st0" d="M3.1,15C1.8,18.7,0.5,23.7,0.7,29c0,0.5,0.3,1.3-0.1,1.5c-0.4,0-0.4-0.7-0.4-0.9
			c-0.3-2.8,0.2-5.7,0.6-8.2C1.4,19,2.2,16.7,3.1,15z"/>
		<path id="XMLID_335_" class="st1" d="M64.4,29.5c0.7,0.1,0.5,1.1,0.5,1.6c0.1,5.1-0.8,10.1-2.7,13.5c0,0.1,0,0.4-0.2,0.3
			c1.5-3.8,2.8-8.8,2.5-14.2C64.3,30.4,64.1,29.8,64.4,29.5z"/>
	</g>
</g>
</svg>
